<svg xmlns="http://www.w3.org/2000/svg" xmlns:xlink="http://www.w3.org/1999/xlink" contentStyleType="text/css" data-diagram-type="DESCRIPTION" height="239px" preserveAspectRatio="none" style="width:2824px;height:239px;background:#FFFFFF;" version="1.1" viewBox="0 0 2824 239" width="2824px" zoomAndPan="magnify"><?plantuml 1.2026.3?><defs/><g><g class="title" data-source-line="2"><text fill="#000000" font-family="sans-serif" font-size="14" font-weight="700" lengthAdjust="spacing" textLength="265.187" x="1275.9065" y="24.9659">Casos de Uso - API de Usuarios y Roles</text></g><!--cluster Autenticacion--><g class="cluster" data-qualified-name="Autenticacion" data-source-line="9" id="ent0006"><rect fill="none" height="100" rx="2.5" ry="2.5" style="stroke:#181818;stroke-width:1;" width="510" x="14" y="131.0679"/><text fill="#000000" font-family="sans-serif" font-size="14" font-weight="700" lengthAdjust="spacing" textLength="97.4536" x="220.2732" y="148.0339">Autenticacion</text></g><!--cluster Gestion de Usuarios--><g class="cluster" data-qualified-name="Gestion de Usuarios" data-source-line="14" id="ent0009"><rect fill="none" height="87" rx="2.5" ry="2.5" style="stroke:#181818;stroke-width:1;" width="1010" x="532" y="137.5679"/><text fill="#000000" font-family="sans-serif" font-size="14" font-weight="700" lengthAdjust="spacing" textLength="139.4395" x="967.2803" y="154.5339">Gestion de Usuarios</text></g><!--cluster Gestion de Roles--><g class="cluster" data-qualified-name="Gestion de Roles" data-source-line="22" id="ent0015"><rect fill="none" height="73" rx="2.5" ry="2.5" style="stroke:#181818;stroke-width:1;" width="670" x="1550" y="144.5679"/><text fill="#000000" font-family="sans-serif" font-size="14" font-weight="700" lengthAdjust="spacing" textLength="115.6115" x="1827.1942" y="161.5339">Gestion de Roles</text></g><!--entity UNAUTH--><g class="entity" data-qualified-name="UNAUTH" data-source-line="4" id="ent0002"><ellipse cx="585.1097" cy="52.5679" fill="#F1F1F1" rx="8" ry="8" style="stroke:#181818;stroke-width:0.5;"/><path d="M585.1097,60.5679 L585.1097,87.5679 M572.1097,68.5679 L598.1097,68.5679 M585.1097,87.5679 L572.1097,102.5679 M585.1097,87.5679 L598.1097,102.5679" fill="none" style="stroke:#181818;stroke-width:0.5;"/><text fill="#000000" font-family="sans-serif" font-size="14" lengthAdjust="spacing" textLength="157.2194" x="506.5" y="119.0339">Usuario No Autenticado</text></g><!--entity AUTH--><g class="entity" data-qualified-name="AUTH" data-source-line="5" id="ent0003"><ellipse cx="839.2347" cy="52.5679" fill="#F1F1F1" rx="8" ry="8" style="stroke:#181818;stroke-width:0.5;"/><path d="M839.2347,60.5679 L839.2347,87.5679 M826.2347,68.5679 L852.2347,68.5679 M839.2347,87.5679 L826.2347,102.5679 M839.2347,87.5679 L852.2347,102.5679" fill="none" style="stroke:#181818;stroke-width:0.5;"/><text fill="#000000" font-family="sans-serif" font-size="14" lengthAdjust="spacing" textLength="134.4695" x="772" y="119.0339">Usuario Autenticado</text></g><!--entity ADMIN--><g class="entity" data-qualified-name="ADMIN" data-source-line="6" id="ent0004"><ellipse cx="1546.0347" cy="52.5679" fill="#F1F1F1" rx="8" ry="8" style="stroke:#181818;stroke-width:0.5;"/><path d="M1546.0347,60.5679 L1546.0347,87.5679 M1533.0347,68.5679 L1559.0347,68.5679 M1546.0347,87.5679 L1533.0347,102.5679 M1546.0347,87.5679 L1559.0347,102.5679" fill="none" style="stroke:#181818;stroke-width:0.5;"/><text fill="#000000" font-family="sans-serif" font-size="14" lengthAdjust="spacing" textLength="154.0694" x="1469" y="119.0339">Administrador (ADMIN)</text></g><!--entity SYS--><g class="entity" data-qualified-name="SYS" data-source-line="7" id="ent0005"><ellipse cx="244.2147" cy="52.5679" fill="#F1F1F1" rx="8" ry="8" style="stroke:#181818;stroke-width:0.5;"/><path d="M244.2147,60.5679 L244.2147,87.5679 M231.2147,68.5679 L257.2147,68.5679 M244.2147,87.5679 L231.2147,102.5679 M244.2147,87.5679 L257.2147,102.5679" fill="none" style="stroke:#181818;stroke-width:0.5;"/><text fill="#000000" font-family="sans-serif" font-size="14" lengthAdjust="spacing" textLength="136.4295" x="176" y="119.0339">Sistema Consumidor</text></g><g class="entity" data-qualified-name="GMN35" data-source-line="46" id="ent0036"><path d="M2230,178.0679 L2230,205.7739 A0,0 0 0 0 2230,205.7739 L2505.5273,205.7739 A0,0 0 0 0 2505.5273,205.7739 L2505.5273,188.0679 L2495.5273,178.0679 L2347.5582,178.0679 L658.3353,170.7865 L2339.5582,178.0679 L2230,178.0679 A0,0 0 0 0 2230,178.0679" fill="#FEFFDD" style="stroke:#181818;stroke-width:0.5;"/><path d="M2495.5273,178.0679 L2495.5273,188.0679 L2505.5273,188.0679 L2495.5273,178.0679" fill="#FEFFDD" style="stroke:#181818;stroke-width:0.5;"/><text fill="#000000" font-family="sans-serif" font-size="13" lengthAdjust="spacing" textLength="254.5273" x="2236" y="196.9649">Registro publico: autoasigna rol USUARIO</text></g><g class="entity" data-qualified-name="GMN38" data-source-line="50" id="ent0039"><path d="M2524,169.5679 L2524,214.9799 A0,0 0 0 0 2524,214.9799 L2816.1412,214.9799 A0,0 0 0 0 2816.1412,214.9799 L2816.1412,179.5679 L2806.1412,169.5679 L2630.1286,169.5679 L2152.6412,174.2817 L2622.1286,169.5679 L2524,169.5679 A0,0 0 0 0 2524,169.5679" fill="#FEFFDD" style="stroke:#181818;stroke-width:0.5;"/><path d="M2806.1412,169.5679 L2806.1412,179.5679 L2816.1412,179.5679 L2806.1412,169.5679" fill="#FEFFDD" style="stroke:#181818;stroke-width:0.5;"/><text fill="#000000" font-family="sans-serif" font-size="13" lengthAdjust="spacing" textLength="205.4522" x="2530" y="188.4649">Al asignar/quitar rol o dar de baja</text><text fill="#000000" font-family="sans-serif" font-size="13" lengthAdjust="spacing" textLength="271.1412" x="2530" y="206.1709">se invalida el cache -&gt; revocacion en caliente</text></g><!--entity UC1--><g class="entity" data-qualified-name="Autenticacion.UC1" data-source-line="10" id="ent0007"><ellipse cx="115.9485" cy="192.2576" fill="#F1F1F1" rx="93.9485" ry="21.1897" style="stroke:#181818;stroke-width:0.5;"/><text fill="#000000" font-family="sans-serif" font-size="14" lengthAdjust="spacing" textLength="154.9094" x="38.4939" y="198.2916">UC1 - Login (emitir JWT)</text></g><!--entity MEAUTH--><g class="entity" data-qualified-name="Autenticacion.MEAUTH" data-source-line="11" id="ent0008"><ellipse cx="371.803" cy="192.1285" fill="#F1F1F1" rx="143.303" ry="31.0606" style="stroke:#181818;stroke-width:0.5;"/><text fill="#000000" font-family="sans-serif" font-size="14" lengthAdjust="spacing" textLength="263.913" x="239.8465" y="198.1625">Obtener usuario autenticado (/auth/me)</text></g><!--entity UC2--><g class="entity" data-qualified-name="Gestion de Usuarios.UC2" data-source-line="15" id="ent0010"><ellipse cx="632.8186" cy="192.0316" fill="#F1F1F1" rx="92.8186" ry="20.9637" style="stroke:#181818;stroke-width:0.5;"/><text fill="#000000" font-family="sans-serif" font-size="14" lengthAdjust="spacing" textLength="152.2494" x="556.6939" y="198.0656">UC2 - Registrar usuario</text></g><!--entity UC3--><g class="entity" data-qualified-name="Gestion de Usuarios.UC3" data-source-line="16" id="ent0011"><ellipse cx="1277.7564" cy="192.1192" fill="#F1F1F1" rx="85.7564" ry="19.5513" style="stroke:#181818;stroke-width:0.5;"/><text fill="#000000" font-family="sans-serif" font-size="14" lengthAdjust="spacing" textLength="135.2955" x="1210.1087" y="198.1532">UC3 - Listar usuarios</text></g><!--entity UC4--><g class="entity" data-qualified-name="Gestion de Usuarios.UC4" data-source-line="17" id="ent0012"><ellipse cx="1062.7634" cy="192.0206" fill="#F1F1F1" rx="110.2634" ry="24.4527" style="stroke:#181818;stroke-width:0.5;"/><text fill="#000000" font-family="sans-serif" font-size="14" lengthAdjust="spacing" textLength="192.1773" x="966.6748" y="198.0546">UC4 - Obtener usuario por ID</text></g><!--entity UC5--><g class="entity" data-qualified-name="Gestion de Usuarios.UC5" data-source-line="18" id="ent0013"><ellipse cx="838.8025" cy="191.9284" fill="#F1F1F1" rx="94.8025" ry="21.3605" style="stroke:#181818;stroke-width:0.5;"/><text fill="#000000" font-family="sans-serif" font-size="14" lengthAdjust="spacing" textLength="156.9114" x="760.3468" y="197.9624">UC5 - Actualizar usuario</text></g><!--entity UC6--><g class="entity" data-qualified-name="Gestion de Usuarios.UC6" data-source-line="19" id="ent0014"><ellipse cx="1458.2136" cy="192.1106" fill="#F1F1F1" rx="75.7136" ry="17.5427" style="stroke:#181818;stroke-width:0.5;"/><text fill="#000000" font-family="sans-serif" font-size="14" lengthAdjust="spacing" textLength="109.8156" x="1403.3059" y="198.1446">UC6 - Baja logica</text></g><!--entity UC7--><g class="entity" data-qualified-name="Gestion de Roles.UC7" data-source-line="23" id="ent0016"><ellipse cx="1800.8423" cy="192.1364" fill="#F1F1F1" rx="70.8423" ry="16.5685" style="stroke:#181818;stroke-width:0.5;"/><text fill="#000000" font-family="sans-serif" font-size="14" lengthAdjust="spacing" textLength="96.5436" x="1752.5705" y="198.1703">UC7 - Crear rol</text></g><!--entity UC8--><g class="entity" data-qualified-name="Gestion de Roles.UC8" data-source-line="24" id="ent0017"><ellipse cx="1634.7862" cy="192.2252" fill="#F1F1F1" rx="76.2862" ry="17.6572" style="stroke:#181818;stroke-width:0.5;"/><text fill="#000000" font-family="sans-serif" font-size="14" lengthAdjust="spacing" textLength="111.3276" x="1579.1224" y="198.2591">UC8 - Listar roles</text></g><!--entity UC9--><g class="entity" data-qualified-name="Gestion de Roles.UC9" data-source-line="25" id="ent0018"><ellipse cx="2135.9889" cy="192.1657" fill="#F1F1F1" rx="75.9889" ry="17.5978" style="stroke:#181818;stroke-width:0.5;"/><text fill="#000000" font-family="sans-serif" font-size="14" lengthAdjust="spacing" textLength="110.5436" x="2080.7171" y="198.1997">UC9 - Asignar rol</text></g><!--entity UC10--><g class="entity" data-qualified-name="Gestion de Roles.UC10" data-source-line="26" id="ent0019"><ellipse cx="1965.8882" cy="192.1456" fill="#F1F1F1" rx="75.8882" ry="17.5776" style="stroke:#181818;stroke-width:0.5;"/><text fill="#000000" font-family="sans-serif" font-size="14" lengthAdjust="spacing" textLength="110.2776" x="1910.7494" y="198.1795">UC10 - Quitar rol</text></g><g class="link" data-entity-1="ent0002" data-entity-2="ent0007" data-link-type="dependency" id="lnk20"><polygon fill="#181818" points="142.8202,170.8913,152.4957,169.0513,146.9295,168.0428,147.938,162.4765,142.8202,170.8913" style="stroke:#181818;stroke-width:1;"/><path d="M506.335,97.439 C453.9369,105.667 383.4861,116.069 321,123.0679 C275.81,128.1295 262.4028,117.5052 219,131.0679 C191.1486,139.7711 167.6622,153.6705 147.7513,167.473" fill="none" style="stroke:#181818;stroke-width:1;"/></g><g class="link" data-entity-1="ent0002" data-entity-2="ent0010" data-link-type="dependency" id="lnk21"><polygon fill="#181818" points="623.968,171.0283,623.9167,161.1795,621.9136,166.4699,616.6232,164.4667,623.968,171.0283" style="stroke:#181818;stroke-width:1;"/><path d="M602.4649,123.3181 C609.756,139.4952 615.4527,152.1348 621.5027,165.5582" fill="none" style="stroke:#181818;stroke-width:1;"/></g><g class="link" data-entity-1="ent0003" data-entity-2="ent0008" data-link-type="dependency" id="lnk22"><polygon fill="#181818" points="436.6476,160.9944,446.4934,161.2387,441.2656,159.0777,443.4267,153.8499,436.6476,160.9944" style="stroke:#181818;stroke-width:1;"/><path d="M771.6561,102.9727 C741.6772,110.4415 705.8033,118.3948 673,123.0679 C609.1027,132.1707 591.1091,117.5411 528,131.0679 C497.0734,137.6967 469.7432,147.258 442.1892,158.6943" fill="none" style="stroke:#181818;stroke-width:1;"/></g><g class="link" data-entity-1="ent0003" data-entity-2="ent0012" data-link-type="dependency" id="lnk23"><polygon fill="#181818" points="1017.0708,167.5213,1010.846,159.889,1012.6093,165.264,1007.2343,167.0274,1017.0708,167.5213" style="stroke:#181818;stroke-width:1;"/><path d="M906.0504,114.0357 C918.3822,119.6003 931.1118,125.4414 943,131.0679 C967.6325,142.7262 989.4609,153.5519 1011.717,164.8126" fill="none" style="stroke:#181818;stroke-width:1;"/></g><g class="link" data-entity-1="ent0003" data-entity-2="ent0013" data-link-type="dependency" id="lnk24"><polygon fill="#181818" points="839,170.433,843,161.433,839,165.433,835,161.433,839,170.433" style="stroke:#181818;stroke-width:1;"/><path d="M839,123.3181 C839,139.2573 839,151.0727 839,164.433" fill="none" style="stroke:#181818;stroke-width:1;"/></g><g class="link" data-entity-1="ent0004" data-entity-2="ent0011" data-link-type="dependency" id="lnk25"><polygon fill="#181818" points="1303.3351,172.3302,1313.0019,170.4455,1307.4311,169.4627,1308.4139,163.8919,1303.3351,172.3302" style="stroke:#181818;stroke-width:1;"/><path d="M1468.5725,100.3566 C1438.3821,107.8292 1403.9126,118.0201 1374,131.0679 C1348.599,142.1478 1326.9715,155.7831 1308.2503,168.8892" fill="none" style="stroke:#181818;stroke-width:1;"/></g><g class="link" data-entity-1="ent0004" data-entity-2="ent0012" data-link-type="dependency" id="lnk26"><polygon fill="#181818" points="1101.877,167.4299,1111.6837,166.5199,1106.2389,164.9857,1107.7731,159.5409,1101.877,167.4299" style="stroke:#181818;stroke-width:1;"/><path d="M1468.6515,86.9786 C1394.0682,91.0395 1278.7308,101.9235 1183,131.0679 C1154.5897,139.7172 1129.9469,151.701 1107.1113,164.4969" fill="none" style="stroke:#181818;stroke-width:1;"/></g><g class="link" data-entity-1="ent0004" data-entity-2="ent0013" data-link-type="dependency" id="lnk27"><polygon fill="#181818" points="867.2683,170.297,876.9648,168.5713,871.4108,167.4971,872.4849,161.9432,867.2683,170.297" style="stroke:#181818;stroke-width:1;"/><path d="M1468.8828,86.3216 C1329.2099,90.1921 1039.9429,101.587 944,131.0679 C916.1036,139.6398 892.5164,153.2322 872.2393,166.9371" fill="none" style="stroke:#181818;stroke-width:1;"/></g><g class="link" data-entity-1="ent0004" data-entity-2="ent0014" data-link-type="dependency" id="lnk28"><polygon fill="#181818" points="1471.7168,174.4675,1480.5331,170.0774,1474.9017,170.6131,1474.366,164.9816,1471.7168,174.4675" style="stroke:#181818;stroke-width:1;"/><path d="M1513.981,123.3181 C1499.4346,140.9226 1486.8189,156.1905 1475.5386,169.8422" fill="none" style="stroke:#181818;stroke-width:1;"/></g><g class="link" data-entity-1="ent0004" data-entity-2="ent0016" data-link-type="dependency" id="lnk29"><polygon fill="#181818" points="1784.1763,175.3749,1780.0698,166.423,1780.4255,172.0687,1774.7798,172.4244,1784.1763,175.3749" style="stroke:#181818;stroke-width:1;"/><path d="M1623.2115,98.3663 C1654.5333,105.6601 1690.4526,116.2513 1721,131.0679 C1744.8995,142.6601 1764.3061,157.8601 1779.6753,171.4074" fill="none" style="stroke:#181818;stroke-width:1;"/></g><g class="link" data-entity-1="ent0004" data-entity-2="ent0017" data-link-type="dependency" id="lnk30"><polygon fill="#181818" points="1621.1273,174.4675,1618.4255,164.9965,1617.9211,170.6308,1612.2868,170.1265,1621.1273,174.4675" style="stroke:#181818;stroke-width:1;"/><path d="M1578.3828,123.3181 C1593.0945,140.9226 1605.8714,156.2118 1617.2799,169.8635" fill="none" style="stroke:#181818;stroke-width:1;"/></g><g class="link" data-entity-1="ent0004" data-entity-2="ent0018" data-link-type="dependency" id="lnk31"><polygon fill="#181818" points="2118.3856,174.3882,2114.2642,165.4432,2114.6292,171.0883,2108.9842,171.4533,2118.3856,174.3882" style="stroke:#181818;stroke-width:1;"/><path d="M1623.3537,86.8129 C1744.8877,91.1564 1974.5873,102.8941 2051,131.0679 C2076.9301,140.6285 2097.7194,156.2328 2113.878,170.4283" fill="none" style="stroke:#181818;stroke-width:1;"/></g><g class="link" data-entity-1="ent0004" data-entity-2="ent0019" data-link-type="dependency" id="lnk32"><polygon fill="#181818" points="1947.9558,174.402,1943.7451,165.4986,1944.1666,171.1397,1938.5255,171.5613,1947.9558,174.402" style="stroke:#181818;stroke-width:1;"/><path d="M1623.1145,85.0058 C1692.7555,87.7613 1796.9021,97.839 1881,131.0679 C1906.5349,141.1573 1927.1659,156.5032 1943.4088,170.4873" fill="none" style="stroke:#181818;stroke-width:1;"/></g><g class="link" data-entity-1="ent0005" data-entity-2="ent0007" data-link-type="dependency" id="lnk33"><polygon fill="#181818" points="140.0852,171.0283,149.562,168.3468,143.9288,167.8303,144.4453,162.1971,140.0852,171.0283" style="stroke:#181818;stroke-width:1;"/><path d="M197.427,123.3181 C177.9841,139.4952 160.8307,153.7674 144.6975,167.1907" fill="none" style="stroke:#181818;stroke-width:1;"/></g><g class="link" data-entity-1="ent0005" data-entity-2="ent0008" data-link-type="dependency" id="lnk34"><polygon fill="#181818" points="335.6948,160.8608,331.3347,152.0296,331.8512,157.6629,326.218,158.1793,335.6948,160.8608" style="stroke:#181818;stroke-width:1;"/><path d="M290.573,123.3181 C305.4411,135.6888 317.0552,145.3521 331.0825,157.0233" fill="none" style="stroke:#181818;stroke-width:1;"/></g><?plantuml-src TPDDRzim38Rl-XLSJkaXI9llz330JOSjmvfkIOrYHyLc7Gsor4foWMxOVnzjgOwLO3UzvcFo9KLzU3QyA3b8_gOh1xP4nnLdJZY9iE9MMyWHKgjX0CdtjHSLDu82Rx3L4YrZF7FQG2y4OACXgHmg9pAUwnvm2-acIH--d8AdL9T9yb8eOPsXe85-SdkttbnugZw-Opj2aFoljB9LAOXjcDtF7MC6Csgce4PwRQLCQDM3FmoWifXnIx5qTKNDVTE5KD37KZXXuElZWoz6mIvxlwSyQEY3xu0VEu3-aDHXMAB_y-vJqyxVoCTdj8uSTCTuvcP4RhPODBstbOAPKOoEQ-C47ZaRm74CJWWyzVvCyrlV1duIyzFwkZDNSIb-dvcOnkoCs1l-YtQ8HfZn0Ct-ttcpDMTjpodDoY1LCrg69FCOMHpRDJv7GorYQbbxjw9GKQhboPLV4lMZ4Yw2hYvhrtvPOJ3us5n_94Ui5U62Ey59LqnPiwX1ZICrYLHCpY8rZzGYKij8aNVQ-jRr-pcuP4ex12EAWmFz53OfR1cjGhMN8jFNzJvhtiokdWgakpJPhkyPgXpg1ETfwh4c4lm_PlZIJXGqv7IYwzxJRX15SnVgbHOgvu0Iw2aU4CYWmLVjtoMWeizIq8l2Oyb_?></g></svg>